<?xml version="1.0" encoding="utf-8"?>
<!-- Generator: Adobe Illustrator 28.1.0, SVG Export Plug-In . SVG Version: 6.00 Build 0)  -->
<svg version="1.1" id="Layer_1" xmlns="http://www.w3.org/2000/svg" xmlns:xlink="http://www.w3.org/1999/xlink" x="0px" y="0px"
	 viewBox="0 0 360 144" style="enable-background:new 0 0 360 144;" xml:space="preserve">
<style type="text/css">
	.st0{fill:#4D4D4F;}
</style>
<g>
	<g>
		<path class="st0" d="M91.4,73.2c0,6.9-4.4,11.1-9.9,11.1c-5.4,0-10.1-4.4-10.1-11.1s4.7-11.1,10.1-11.1
			C86.8,62.1,91.4,66.4,91.4,73.2 M99.4,73.2c0-11.5-7.9-18-16.1-18c-5.6,0-9.2,2.9-11.7,6.5v-5.8h-7.9v45h7.9V85.1
			c2.4,3.2,6,6.1,11.7,6.1C91.6,91.2,99.4,84.7,99.4,73.2"/>
	</g>
	<rect x="107.3" y="43.1" class="st0" width="8.5" height="7.5"/>
	<rect x="107.6" y="55.9" class="st0" width="7.9" height="34.5"/>
	<g>
		<path class="st0" d="M141.5,91.3c-10.3,0-17.9-8-17.9-17.9s7.6-18.1,17.9-18.1c6.5,0,10.6,2.4,13.8,6l-4.9,5.3
			c-2.4-2.6-5-4.3-9-4.3c-5.8,0-9.9,5-9.9,11.1c0,6.2,4.3,11.2,10.3,11.2c3.7,0,6.5-1.8,9-4.3l4.8,4.7
			C152.2,88.6,148.2,91.3,141.5,91.3"/>
		<path class="st0" d="M185.2,55.9h7.9v34.6h-7.9v-5.4c-2.2,3.3-5.4,6.1-10.8,6.1c-7.8,0-12.3-5.2-12.3-13.3v-22h7.9v19.6
			c0,5.4,2.7,8.4,7.4,8.4c4.6,0,7.8-3.2,7.8-8.6L185.2,55.9L185.2,55.9z"/>
		<path class="st0" d="M210.6,90.5h-7.9V55.9h7.9v7.8c2.2-5.2,6.1-8.7,12.2-8.4v8.4h-0.5c-6.9,0-11.8,4.5-11.8,13.7v13.1H210.6z"/>
		<path class="st0" d="M253,70.8h-17.7c0.7-5.4,4.1-9.1,9-9.1C249.5,61.7,252.5,65.7,253,70.8 M260.9,73.9c0-10-5.6-18.6-16.6-18.6
			c-9.9,0-16.9,8.1-16.9,18.1c0,10.7,7.7,18,17.7,18c6.3,0,10.9-2.6,14.1-6.5l-4.6-4.1c-2.7,2.7-5.5,4.1-9.4,4.1
			c-5.1,0-9-3.1-9.9-8.8h25.4C260.8,75.2,260.9,74.6,260.9,73.9"/>
		<path class="st0" d="M289.8,78c0,4.3-3.9,7.3-9.2,7.3c-3.7,0-6.7-1.8-6.7-5.1v-0.1c0-3.5,2.9-5.6,7.9-5.6c3.1,0,5.9,0.6,7.9,1.4
			V78C289.7,78,289.8,78,289.8,78z M297.4,90.5V70c0-9.2-5-14.6-15.2-14.6c-5.6,0-9.4,1.2-13.1,2.9l2.2,6.3c3.1-1.3,6-2.2,9.9-2.2
			c5.5,0,8.5,2.6,8.5,7.4v0.9c-2.7-0.9-5.4-1.4-9.5-1.4c-8,0-14,3.7-14,11.1v0.1c0,6.9,5.8,10.7,12.3,10.7c5.2,0,8.8-2.2,11.2-5v4.3
			H297.4z"/>
		<path class="st0" d="M314.4,90.5h-7.9V55.9h7.9v5.4c2.2-3.3,5.4-6.1,10.8-6.1c7.8,0,12.3,5.2,12.3,13.3v22h-7.9V70.9
			c0-5.4-2.7-8.4-7.4-8.4c-4.6,0-7.8,3.2-7.8,8.6V90.5z"/>
		<path class="st0" d="M42.9,67.2c0.5,0,0.9-0.4,0.9-0.9s-0.4-0.9-0.9-0.9H38c-0.5,0-0.9,0.4-0.9,0.9s0.4,0.9,0.9,0.9H42.9z"/>
		<path class="st0" d="M55.9,73.9c0.1-10-5.4-18.7-16.4-18.7c-6.7,0-12.1,3.7-14.9,9.2v0.1l2.9-0.1c2-0.2,2.7-0.5,3.5-0.8
			c2.5-1,5.5-2.8,11.4-2.9c5.9-0.1,5.7,3.7,5.7,6c0.1,2.3-0.8,5.7-5.8,5.3c-4.9-0.4-8.5-1.9-11.8-3.1c-1.1-0.4-2.3-0.7-3.4-0.8h-1.2
			h-2.8v0.1c-0.4,1.6-0.6,3.3-0.6,5c-0.1,10.7,7.6,18,17.6,18.1c6.3,0,10.9-2.5,14.2-6.4l-4.6-4.1c-2.8,2.7-5.5,4.1-9.4,4.1
			c-5.1,0-9-3.2-9.9-8.8l25.4,0.2C55.8,75.3,55.9,74.6,55.9,73.9"/>
	</g>
</g>
</svg>
