<?xml version="1.0" encoding="UTF-8" standalone="no"?>
<!-- Created with Inkscape (http://www.inkscape.org/) -->
<svg
   xmlns:svg="http://www.w3.org/2000/svg"
   xmlns="http://www.w3.org/2000/svg"
   version="1.0"
   width="742.90002"
   height="320.04285"
   id="svg4882">
  <defs
     id="defs4884">
    <clipPath
       id="clipPath2359">
      <path
         d="M 0.015015,841.89 L 1190.565,841.89 L 1190.565,0 L 0.015015,0 L 0.015015,841.89 z"
         id="path2361" />
    </clipPath>
    <clipPath
       id="clipPath2353">
      <path
         d="M 0,841 L 1190.551,841 L 1190.551,-0.89 L 0,-0.89 L 0,841 z"
         id="path2355" />
    </clipPath>
    <clipPath
       id="clipPath2347">
      <path
         d="M 595.276,-0.89005 L 595.276,841 L 1190.551,841 L 1190.551,-0.89005"
         id="path2349" />
    </clipPath>
    <clipPath
       id="clipPath2341">
      <path
         d="M 565.512,-37.126 L 1220.315,-37.126 L 1220.315,870.764 L 565.512,870.764 L 565.512,-37.126 z"
         id="path2343" />
    </clipPath>
    <clipPath
       id="clipPath2393">
      <path
         d="M 0.015015,841.89 L 1190.565,841.89 L 1190.565,0 L 0.015015,0 L 0.015015,841.89 z"
         id="path2395" />
    </clipPath>
    <clipPath
       id="clipPath2387">
      <path
         d="M 0,841 L 1190.551,841 L 1190.551,-0.89 L 0,-0.89 L 0,841 z"
         id="path2389" />
    </clipPath>
    <clipPath
       id="clipPath2381">
      <path
         d="M 595.276,-0.89005 L 595.276,841 L 1190.551,841 L 1190.551,-0.89005"
         id="path2383" />
    </clipPath>
    <clipPath
       id="clipPath2375">
      <path
         d="M 565.512,-37.126 L 1220.315,-37.126 L 1220.315,870.764 L 565.512,870.764 L 565.512,-37.126 z"
         id="path2377" />
    </clipPath>
    <clipPath
       id="clipPath2369">
      <path
         d="M 805.662,706.883 L 979.361,706.883 L 979.361,780.181 L 805.662,780.181 L 805.662,706.883 z"
         id="path2371" />
    </clipPath>
    <clipPath
       id="clipPath2421">
      <path
         d="M 0.015015,841.89 L 1190.565,841.89 L 1190.565,0 L 0.015015,0 L 0.015015,841.89 z"
         id="path2423" />
    </clipPath>
    <clipPath
       id="clipPath2415">
      <path
         d="M 0,841 L 1190.551,841 L 1190.551,-0.89 L 0,-0.89 L 0,841 z"
         id="path2417" />
    </clipPath>
    <clipPath
       id="clipPath2409">
      <path
         d="M 595.276,-0.89005 L 595.276,841 L 1190.551,841 L 1190.551,-0.89005"
         id="path2411" />
    </clipPath>
    <clipPath
       id="clipPath2403">
      <path
         d="M 565.512,-37.126 L 1220.315,-37.126 L 1220.315,870.764 L 565.512,870.764 L 565.512,-37.126 z"
         id="path2405" />
    </clipPath>
  </defs>
  <g
     transform="translate(275.73571,-268.05504)"
     id="layer1">
    <path
       d="M 35.810337,351.44031 C 35.810337,332.22186 32.563919,313.73741 26.998033,296.36027 L 27.107085,296.10441 C 31.590833,293.92755 40.713518,289.22989 49.894924,284.29316 C 59.848088,278.94118 70.770144,273.87442 76.323447,272.76292 C 83.537709,271.32007 90.261233,273.50532 94.296186,279.69197 C 98.326945,273.50112 105.04627,271.32007 112.26054,272.76292 C 117.81803,273.87442 128.74009,278.93699 138.69325,284.29316 C 147.87466,289.22989 156.99734,293.92336 161.46431,296.07924 L 161.57756,296.3351 C 156.02426,313.72902 152.77784,332.22186 152.77784,351.44031 C 152.77784,369.83668 156.2927,387.44032 161.41398,404.17153 L 161.28396,404.43158 C 130.68626,415.76468 112.0676,429.99187 94.476542,448.32113 L 94.170356,448.32113 C 76.549942,429.99187 58.115826,415.83179 27.312608,404.45674 L 27.186778,404.1967 C 32.299676,387.44032 35.810337,369.83668 35.810337,351.44031"
       id="path2363"
       style="fill:#ffffff;fill-opacity:1;fill-rule:nonzero;stroke:none" />
    <path
       d="M 35.810337,351.44031 C 35.810337,332.22186 32.563919,313.73741 26.998033,296.36027 L 27.107085,296.10441 C 31.590833,293.92755 40.713518,289.22989 49.894924,284.29316 C 59.848088,278.94118 70.770144,273.87442 76.323447,272.76292 C 83.537709,271.32007 90.261233,273.50532 94.296186,279.69197 C 98.326945,273.50112 105.04627,271.32007 112.26054,272.76292 C 117.81803,273.87442 128.74009,278.93699 138.69325,284.29316 C 147.87466,289.22989 156.99734,293.92336 161.46431,296.07924 L 161.57756,296.3351 C 156.02426,313.72902 152.77784,332.22186 152.77784,351.44031 C 152.77784,369.83668 156.2927,387.44032 161.41398,404.17153 L 161.28396,404.43158 C 130.68626,415.76468 112.0676,429.99187 94.476542,448.32113 L 94.170356,448.32113 C 76.549942,429.99187 58.115826,415.83179 27.312608,404.45674 L 27.186778,404.1967 C 32.299676,387.44032 35.810337,369.83668 35.810337,351.44031 z"
       id="path2397"
       style="fill:none;stroke:#900027;stroke-width:2.09716892;stroke-linecap:butt;stroke-linejoin:miter;stroke-miterlimit:3.86400008;stroke-dasharray:none;stroke-opacity:1" />
    <path
       d="M 129.7719,293.32356 C 122.05851,289.48575 114.08507,285.82409 109.79846,284.96844 C 101.65305,283.33685 95.44124,289.82549 94.455571,293.75139 L 94.250048,294.56509 L 94.044525,293.75139 C 93.054662,289.82549 86.985455,283.33685 78.844245,284.96844 C 74.549242,285.82828 66.584195,289.48575 58.870807,293.32776 C 51.291638,297.09847 43.99349,301.02437 40.738684,302.58886 C 45.146933,317.06771 47.51254,332.18411 47.592232,348.21487 L 58.510094,348.21487 L 58.510094,339.97719 L 83.260882,339.97719 L 83.260882,315.23059 L 104.89108,315.23059 L 104.89108,339.97719 L 129.63348,339.97719 L 129.63348,348.21067 L 141.05886,348.21067 C 141.13855,332.18411 143.49577,317.06352 147.90821,302.58466 C 144.64502,301.02437 137.35107,297.09847 129.7719,293.32356"
       id="path2425"
       style="fill:#900027;fill-opacity:1;fill-rule:nonzero;stroke:none" />
    <path
       d="M 94.254242,432.1184 C 109.10639,418.09673 127.58665,404.49449 147.68591,397.53189 C 145.67683,390.59026 143.65516,380.95587 142.48494,371.41794 C 141.40699,362.67275 141.13855,354.6364 141.0295,353.3781 L 129.63348,353.3781 L 129.63348,361.61158 L 104.89108,361.61158 L 104.89108,386.35818 L 83.260882,386.35818 L 83.260882,361.61158 L 58.510094,361.61158 L 58.510094,353.3781 L 47.546094,353.3781 C 47.176993,368.14636 44.68975,384.42459 40.877097,397.53609 C 60.97217,404.49449 79.397897,418.09673 94.254242,432.1184"
       id="path2427"
       style="fill:#900027;fill-opacity:1;fill-rule:nonzero;stroke:none" />
    <path
       d="M -229.15438,558.06179 L -212.37703,512.57839 C -211.3662,509.54588 -212.78388,507.32288 -218.24072,506.51338 L -218.24072,502.47423 L -193.17535,502.47423 L -193.17535,506.51338 C -197.62135,506.7147 -201.25784,507.52421 -203.27951,512.98105 L -228.14355,578.07717 L -233.60458,578.07717 L -261.29979,512.57839 C -263.72412,506.91603 -267.96879,506.7147 -269.99046,506.7147 L -269.99046,502.47423 L -241.08308,502.47423 L -241.08308,506.51338 C -245.73041,507.32288 -246.94677,509.94854 -246.33859,511.76888 L -229.15438,558.06179 z M -160.22463,566.3498 C -160.22463,568.77832 -159.00827,569.99049 -156.58395,571.00132 C -155.17046,571.60531 -153.14878,572.21768 -151.7311,572.41482 L -151.7311,576.25683 L -181.44798,576.25683 L -181.44798,572.41482 C -180.43715,572.21768 -177.20331,571.40398 -176.19248,570.8 C -174.37213,569.78916 -172.95864,568.77832 -172.95864,566.14847 L -172.95864,512.37706 C -172.95864,508.33372 -178.01282,506.7147 -181.44798,506.31205 L -181.44798,502.47423 L -151.7311,502.47423 L -151.7311,506.31205 C -155.77444,507.12156 -160.22463,507.92687 -160.22463,512.57839 L -160.22463,566.3498 z M -82.394497,502.47423 L -81.99184,523.0894 L -85.82966,523.0894 C -86.840495,519.04606 -87.851331,515.6109 -89.671673,513.18657 C -92.301523,509.74721 -96.143537,508.13239 -101.8017,508.13239 C -120.60072,508.13239 -122.42106,526.93141 -122.42106,539.05725 C -122.42106,551.3886 -120.19807,570.59447 -100.38821,570.19182 C -94.323194,569.99049 -85.225675,566.55113 -79.160662,558.66997 L -78.552483,557.86046 L -74.513336,560.89297 L -74.714664,561.29563 C -81.58499,573.42985 -94.725851,577.87584 -103.01386,577.87584 C -126.46441,577.87584 -138.3931,557.05096 -138.3931,539.66542 C -138.3931,525.51792 -129.69824,501.05654 -107.25853,501.05654 C -98.567864,501.05654 -92.100195,503.07821 -86.639167,505.9052 L -85.82966,502.47423 L -82.394497,502.47423 z M -32.666426,510.35539 L -32.666426,565.75001 C -32.666426,568.37147 -30.846083,570.39314 -28.014905,571.40398 C -26.601413,572.01216 -24.986593,572.21768 -23.16625,572.41482 L -23.16625,576.25683 L -54.095298,576.25683 L -54.095298,572.41482 C -52.274956,572.21768 -50.861464,572.01216 -48.63427,571.20265 C -46.411271,570.39314 -44.595123,568.37147 -44.595123,565.5403 L -44.796451,510.35539 L -54.497955,510.35539 C -60.361639,510.35539 -62.181982,512.78391 -63.192817,515.40957 C -63.99813,517.63257 -64.203653,519.85557 -64.203653,522.07856 L -68.448323,521.88143 L -68.448323,502.47423 L -8.8132253,502.47423 L -8.8132253,522.07856 L -13.259224,522.07856 C -13.460552,519.04606 -13.867403,516.4204 -14.878238,514.39873 C -16.29173,511.57175 -18.514729,510.35539 -21.345907,510.35539 L -32.666426,510.35539 z M 70.430403,540.06808 C 70.027746,559.47528 57.084019,578.07717 36.066191,578.07717 C 14.633124,578.07717 0.89247281,561.0943 0.48562202,539.66542 C 0.087159914,519.65424 13.827811,500.85102 35.864863,500.85102 C 57.289542,500.85102 70.833059,520.05689 70.430403,540.06808 M 16.05081,538.85592 C 15.652348,554.01845 20.706526,570.39314 35.65934,570.39314 C 51.224529,570.39314 55.066542,553.61579 54.659692,538.45326 C 54.26123,523.69758 51.832708,508.33372 35.65934,508.33372 C 18.881988,508.33372 16.256333,523.89891 16.05081,538.85592 M 154.32555,576.25683 L 136.33184,576.25683 L 120.3598,548.56162 L 107.6216,548.56162 L 107.6216,566.14847 C 107.6216,568.97965 109.64746,571.60531 116.72331,572.41482 L 116.92883,576.25683 L 85.790068,576.25683 L 85.790068,572.21768 C 87.815934,572.21768 89.636276,571.81083 91.452425,571.00132 C 93.268573,570.19182 95.09311,568.17015 95.09311,565.94715 L 95.09311,513.58922 C 95.09311,508.73638 90.038933,506.91603 84.984755,506.31205 L 84.984755,502.47423 L 120.3598,502.47423 C 132.69116,502.47423 147.65236,510.75805 147.65236,524.90974 C 147.65236,532.19111 144.41852,542.69793 132.48983,546.53994 L 144.61985,566.55113 C 146.64152,569.78916 149.27137,572.01216 154.12003,572.41482 L 154.32555,576.25683 z M 115.51115,509.94854 C 114.90716,509.94854 112.07598,510.15406 107.83131,510.55672 L 107.83131,541.88842 L 120.3598,541.88842 C 129.65865,541.28444 133.50066,536.43159 133.50066,525.31659 C 133.50066,511.57175 125.21265,509.94854 115.51115,509.94854 M 190.71143,566.3498 C 190.71143,568.77832 191.9236,569.99049 194.34792,571.00132 C 195.76561,571.60531 197.78309,572.21768 199.20077,572.41482 L 199.20077,576.25683 L 169.47969,576.25683 L 169.47969,572.41482 C 170.49892,572.21768 173.72856,571.40398 174.73939,570.8 C 176.55974,569.78916 177.97323,568.77832 177.97323,566.14847 L 177.97323,512.37706 C 177.97323,508.33372 172.92325,506.7147 169.47969,506.31205 L 169.47969,502.47423 L 199.20077,502.47423 L 199.20077,506.31205 C 195.15324,507.12156 190.71143,507.92687 190.71143,512.57839 L 190.71143,566.3498 z M 284.91207,576.25683 L 282.08089,576.25683 L 235.38533,521.88143 L 235.38533,566.14847 C 235.38533,567.96882 236.59749,569.58364 238.62336,571.00132 C 240.64083,572.21768 242.25985,572.21768 244.08019,572.41482 L 244.08019,576.25683 L 219.21196,576.25683 L 219.21196,572.41482 C 220.42412,572.21768 222.04314,572.01216 223.45663,571.40398 C 225.88515,570.59447 227.70549,568.77832 227.70549,566.14847 L 227.70549,513.3879 C 225.88515,509.74721 221.846,506.31205 217.19029,506.31205 L 217.19029,502.47423 L 236.39197,502.47423 L 277.02672,550.78461 L 277.02672,512.57839 C 277.02672,508.53505 272.17806,506.31205 268.54157,506.31205 L 268.54157,502.47423 L 293.60274,502.47423 L 293.60274,506.31205 C 289.36226,506.7147 284.91207,507.92687 284.91207,512.37706 L 284.91207,576.25683 z M 376.88971,539.86675 C 376.48286,559.27395 363.55171,577.87584 342.32417,577.87584 C 321.09662,577.87584 307.15045,560.89297 306.7436,539.4641 C 306.54647,519.45291 320.28712,500.64969 342.12284,500.64969 C 363.75724,500.64969 377.29656,519.85557 376.88971,539.86675 M 322.30879,538.65878 C 322.10746,553.81712 326.95611,570.19182 342.12284,570.19182 C 357.4909,570.19182 361.52585,553.41027 361.12739,538.24774 C 360.72054,523.49625 358.09488,508.13239 342.12284,508.13239 C 325.34549,507.92687 322.51012,523.69758 322.30879,538.65878 M 428.03127,536.02893 L 447.04001,564.52946 C 448.85616,567.36064 451.08335,569.18098 453.10502,570.39314 C 454.11586,571.00132 456.74571,572.41482 458.56186,572.41482 L 458.56186,576.25683 L 427.02463,576.25683 L 427.02463,572.41482 C 427.23015,572.41482 430.05294,572.01216 431.87748,571.20265 C 433.69363,570.39314 434.30181,568.17015 432.68279,566.14847 L 419.94878,546.9426 L 405.39443,566.55113 C 402.76458,569.58364 404.99177,572.01216 408.63246,572.41482 L 408.63246,576.25683 L 385.17772,576.25683 L 385.17772,572.21768 C 390.63455,571.40398 392.65623,569.18098 395.08055,565.94715 L 414.89461,539.25857 L 397.31194,513.18657 C 394.48076,508.9419 390.02638,506.31205 385.7859,506.31205 L 385.7859,502.47423 L 417.93131,502.47423 L 417.93131,506.31205 C 414.29481,506.7147 409.03511,507.92687 411.66496,512.17573 L 422.77996,528.75176 L 435.31264,512.17573 C 437.94249,508.9419 435.92082,506.51338 431.87748,506.31205 L 431.87748,502.47423 L 455.53355,502.47423 L 455.53355,506.31205 C 451.69153,506.51338 449.66567,508.13239 447.44267,510.35539 L 428.03127,536.02893"
       id="path2429"
       style="fill:#231f20;fill-opacity:1;fill-rule:nonzero;stroke:none" />
  </g>
</svg>
